HIERARCHY
ROOT Hips
{
  OFFSET 5.84602e-005 68.8428 3.50346
  CHANNELS 6 Xposition Yposition Zposition Zrotation Xrotation Yrotation
  JOINT Spine
  {
    OFFSET 0 8.597 -4.6522
    CHANNELS 3 Zrotation Xrotation Yrotation
    JOINT Spine1
    {
      OFFSET 0 7.8454 0.4098
      CHANNELS 3 Zrotation Xrotation Yrotation
      JOINT Spine2
      {
        OFFSET 0 9.7078 -2.1609
        CHANNELS 3 Zrotation Xrotation Yrotation
        JOINT Neck
        {
          OFFSET 0 21.8761 -0.4549
          CHANNELS 3 Zrotation Xrotation Yrotation
          JOINT Head
          {
            OFFSET 0 12.3537 3.3602
            CHANNELS 3 Zrotation Xrotation Yrotation
            End Site
            {
              OFFSET 0.0001 18.9506 0.5657
            }
          }
        }
        JOINT LeftShoulder
        {
          OFFSET 2.2086 21.1115 7.2329
          CHANNELS 3 Zrotation Xrotation Yrotation
          JOINT LeftArm
          {
            OFFSET 13.1193 3.0282 -4.8998
            CHANNELS 3 Zrotation Xrotation Yrotation
            JOINT LeftForeArm
            {
              OFFSET 27.4081 -0.0973053 -0.2375
              CHANNELS 3 Zrotation Xrotation Yrotation
              JOINT LeftHand
              {
                OFFSET 22.8641 0.0662994 -0.1369
                CHANNELS 3 Zrotation Xrotation Yrotation
                JOINT LeftHandIndex1
                {
                  OFFSET 8.8614 0.775009 2.4612
                  CHANNELS 3 Zrotation Xrotation Yrotation
                  JOINT LeftHandIndex2
                  {
                    OFFSET 3.3146 -0.808304 0.5841
                    CHANNELS 3 Zrotation Xrotation Yrotation
                    JOINT LeftHandIndex3
                    {
                      OFFSET 2.2628 -0.552002 0.3989
                      CHANNELS 3 Zrotation Xrotation Yrotation
                      End Site
                      {
                        OFFSET 1.6102 -0.4807 0.2612
                      }
                    }
                  }
                }
                JOINT LeftHandMiddle1
                {
                  OFFSET 8.9937 0.895004 0.2143
                  CHANNELS 3 Zrotation Xrotation Yrotation
                  JOINT LeftHandMiddle2
                  {
                    OFFSET 4.0984 0.0113983 -0.0242
                    CHANNELS 3 Zrotation Xrotation Yrotation
                    JOINT LeftHandMiddle3
                    {
                      OFFSET 2.2716 0.00689697 -0.0138001
                      CHANNELS 3 Zrotation Xrotation Yrotation
                      End Site
                      {
                        OFFSET 2.0404 -0.1441 0.0027
                      }
                    }
                  }
                }
                JOINT LeftHandRing1
                {
                  OFFSET 8.5234 0.597198 -2.0164
                  CHANNELS 3 Zrotation Xrotation Yrotation
                  JOINT LeftHandRing2
                  {
                    OFFSET 3.7188 -0.188293 -0.2328
                    CHANNELS 3 Zrotation Xrotation Yrotation
                    JOINT LeftHandRing3
                    {
                      OFFSET 2.1191 -0.106598 -0.1332
                      CHANNELS 3 Zrotation Xrotation Yrotation
                      End Site
                      {
                        OFFSET 1.8737 -0.2304 -0.0886
                      }
                    }
                  }
                }
                JOINT LeftHandPinky1
                {
                  OFFSET 7.9094 -0.601089 -3.4825
                  CHANNELS 3 Zrotation Xrotation Yrotation
                  JOINT LeftHandPinky2
                  {
                    OFFSET 2.2874 -0.477005 -0.6314
                    CHANNELS 3 Zrotation Xrotation Yrotation
                    JOINT LeftHandPinky3
                    {
                      OFFSET 1.6774 -0.349396 -0.4633
                      CHANNELS 3 Zrotation Xrotation Yrotation
                      End Site
                      {
                        OFFSET 1.4888 -0.4091 -0.3416
                      }
                    }
                  }
                }
                JOINT LeftHandThumb1
                {
                  OFFSET 1.833 -1.3875 1.3896
                  CHANNELS 3 Zrotation Xrotation Yrotation
                  JOINT LeftHandThumb2
                  {
                    OFFSET 3.4129 -1.121 2.5732
                    CHANNELS 3 Zrotation Xrotation Yrotation
                    JOINT LeftHandThumb3
                    {
                      OFFSET 2.2474 -0.804199 1.6192
                      CHANNELS 3 Zrotation Xrotation Yrotation
                      End Site
                      {
                        OFFSET 1.6527 -0.5689 1.1317
                      }
                    }
                  }
                }
              }
            }
          }
        }
        JOINT RightShoulder
        {
          OFFSET -2.2086 21.1115 7.2329
          CHANNELS 3 Zrotation Xrotation Yrotation
          JOINT RightArm
          {
            OFFSET -13.1216 3.0287 -4.9007
            CHANNELS 3 Zrotation Xrotation Yrotation
            JOINT RightForeArm
            {
              OFFSET -27.4081 -0.0973053 -0.2375
              CHANNELS 3 Zrotation Xrotation Yrotation
              JOINT RightHand
              {
                OFFSET -22.8641 0.0664063 -0.1369
                CHANNELS 3 Zrotation Xrotation Yrotation
                JOINT RightHandIndex1
                {
                  OFFSET -8.8614 0.774994 2.4612
                  CHANNELS 3 Zrotation Xrotation Yrotation
                  JOINT RightHandIndex2
                  {
                    OFFSET -3.3146 -0.808304 0.5841
                    CHANNELS 3 Zrotation Xrotation Yrotation
                    JOINT RightHandIndex3
                    {
                      OFFSET -2.2628 -0.552002 0.3989
                      CHANNELS 3 Zrotation Xrotation Yrotation
                      End Site
                      {
                        OFFSET -1.6102 -0.4807 0.2612
                      }
                    }
                  }
                }
                JOINT RightHandMiddle1
                {
                  OFFSET -8.9937 0.894989 0.2143
                  CHANNELS 3 Zrotation Xrotation Yrotation
                  JOINT RightHandMiddle2
                  {
                    OFFSET -4.0984 0.0113983 -0.0242
                    CHANNELS 3 Zrotation Xrotation Yrotation
                    JOINT RightHandMiddle3
                    {
                      OFFSET -2.2716 0.00691223 -0.0138001
                      CHANNELS 3 Zrotation Xrotation Yrotation
                      End Site
                      {
                        OFFSET -2.0404 -0.1441 0.0027
                      }
                    }
                  }
                }
                JOINT RightHandRing1
                {
                  OFFSET -8.5234 0.597198 -2.0164
                  CHANNELS 3 Zrotation Xrotation Yrotation
                  JOINT RightHandRing2
                  {
                    OFFSET -3.7188 -0.188309 -0.2328
                    CHANNELS 3 Zrotation Xrotation Yrotation
                    JOINT RightHandRing3
                    {
                      OFFSET -2.1191 -0.106598 -0.1332
                      CHANNELS 3 Zrotation Xrotation Yrotation
                      End Site
                      {
                        OFFSET -1.8737 -0.2304 -0.0886
                      }
                    }
                  }
                }
                JOINT RightHandPinky1
                {
                  OFFSET -7.9094 -0.601105 -3.4825
                  CHANNELS 3 Zrotation Xrotation Yrotation
                  JOINT RightHandPinky2
                  {
                    OFFSET -2.2874 -0.477005 -0.6314
                    CHANNELS 3 Zrotation Xrotation Yrotation
                    JOINT RightHandPinky3
                    {
                      OFFSET -1.6774 -0.349396 -0.4633
                      CHANNELS 3 Zrotation Xrotation Yrotation
                      End Site
                      {
                        OFFSET -1.4888 -0.4091 -0.3416
                      }
                    }
                  }
                }
                JOINT RightHandThumb1
                {
                  OFFSET -1.833 -1.38751 1.3896
                  CHANNELS 3 Zrotation Xrotation Yrotation
                  JOINT RightHandThumb2
                  {
                    OFFSET -3.41299 -1.12099 2.5732
                    CHANNELS 3 Zrotation Xrotation Yrotation
                    JOINT RightHandThumb3
                    {
                      OFFSET -2.24741 -0.804108 1.6192
                      CHANNELS 3 Zrotation Xrotation Yrotation
                      End Site
                      {
                        OFFSET -1.6527 -0.5689 1.1317
                      }
                    }
                  }
                }
              }
            }
          }
        }
      }
    }
  }
  JOINT RightUpLeg
  {
    OFFSET -9.1966 3.8861 -0.7581
    CHANNELS 3 Zrotation Xrotation Yrotation
    JOINT RightLeg
    {
      OFFSET -0.7359 -41.0265 0
      CHANNELS 3 Zrotation Xrotation Yrotation
      JOINT RightFoot
      {
        OFFSET 0 -40.2855 0
        CHANNELS 3 Zrotation Xrotation Yrotation
        JOINT RightToeBase
        {
          OFFSET 0 -5.6122 11.7359
          CHANNELS 3 Zrotation Xrotation Yrotation
          End Site
          {
            OFFSET 0 0 7.8731
          }
        }
      }
    }
  }
  JOINT LeftUpLeg
  {
    OFFSET 9.1965 3.8864 -0.7581
    CHANNELS 3 Zrotation Xrotation Yrotation
    JOINT LeftLeg
    {
      OFFSET 0.7359 -41.0268 0
      CHANNELS 3 Zrotation Xrotation Yrotation
      JOINT LeftFoot
      {
        OFFSET 0 -40.2855 0
        CHANNELS 3 Zrotation Xrotation Yrotation
        JOINT LeftToeBase
        {
          OFFSET 0 -5.6122 11.7359
          CHANNELS 3 Zrotation Xrotation Yrotation
          End Site
          {
            OFFSET 0 0 7.8731
          }
        }
      }
    }
  }
}
MOTION
Frames:	5
Frame Time:	0.0333333
-3.68953 10.7653 37.0665 -1.40334e-014 2.3078e-019 -90.0019 0.680035 12.0535 -0.673756 1.56269 24.0973 -1.5511 1.56268 24.0973 -1.55108 25.2561 3.90038 -22.5412 -10.3578 -41.4219 -22.4291 20.3646 -8.87689 32.6966 -30.9517 -2.06526 -41.1539 -22.7621 -3.45949 -125.085 45.5712 -73.586 22.7702 -1.76556e-031 -3.18055e-015 -3.18055e-015 1.4559e-006 -2.59695e-007 8.15681e-007 -6.36111e-015 9.54166e-015 3.18055e-015 -1.76556e-031 -3.18055e-015 -3.18055e-015 -0.0145939 -8.46639e-005 2.03011e-006 -3.18055e-015 3.18055e-015 -1.59028e-015 -1.76556e-031 -3.18055e-015 -3.18055e-015 -0.0187356 -0.00117838 5.91181e-005 -0 0 1.59028e-015 -1.76556e-031 -3.18055e-015 -3.18055e-015 -0.012225 -0.00323932 0.000671279 -6.36111e-015 3.18055e-015 1.59028e-015 -1.76556e-031 -3.18055e-015 -3.18055e-015 1.4559e-006 -2.59695e-007 8.15681e-007 -6.36111e-015 9.54166e-015 3.18055e-015 -17.2754 -36.2009 -54.6125 87.3368 25.0741 18.147 53.7887 35.2712 96.898 -17.277 -32.3426 -28.9446 4.08704e-007 7.54533e-008 9.48368e-008 7.01263e-007 1.8209e-006 2.76962e-006 4.08704e-007 7.54533e-008 9.48368e-008 4.08704e-007 7.54533e-008 9.48368e-008 0.0149989 -9.11879e-005 1.88042e-006 4.08701e-007 7.54657e-008 9.48266e-008 4.08704e-007 7.54533e-008 9.48368e-008 0.0189969 -0.00118959 -6.05669e-005 4.08701e-007 7.54695e-008 9.482e-008 4.08704e-007 7.54533e-008 9.48368e-008 0.0122662 -0.00324588 -0.000677716 5.66591e-007 -5.51276e-008 1.03505e-006 4.08704e-007 7.54533e-008 9.48368e-008 7.01263e-007 1.8209e-006 2.76962e-006 4.08704e-007 7.54533e-008 9.48368e-008 -0.38376 -54.3301 -6.70225 -172.747 28.0173 162.646 -1.50941 43.8529 -3.38898 -1.01337e-006 -1.24706e-006 4.71658e-007 1.37994 -53.752 1.17994 172.569 28.6794 -162.679 4.21659 43.6779 -4.3916 5.5342e-006 -1.71352e-006 -2.08272e-006 
-3.68953 10.7653 37.0665 -1.40334e-014 2.3078e-019 -90.0019 0.664123 12.0538 -0.663472 1.52739 24.0982 -1.52616 1.52739 24.0982 -1.52617 24.6957 4.08324 -21.6998 -10.1143 -41.3629 -21.9369 20.5184 -8.9425 32.3635 -30.9518 -2.06486 -41.1533 -22.7608 -3.45796 -125.088 45.8983 -73.276 22.9975 -2.91179e-006 5.20174e-007 -1.63106e-006 2.98287e-006 -6.10426e-007 2.78585e-007 -2.91179e-006 5.20174e-007 -1.63106e-006 -2.91179e-006 5.20174e-007 -1.63106e-006 -0.0146451 -8.51845e-005 3.10846e-006 -2.91172e-006 5.20383e-007 -1.63099e-006 -2.91179e-006 5.20174e-007 -1.63106e-006 -0.0187149 -0.00117344 5.79199e-005 -2.91172e-006 5.20447e-007 -1.63095e-006 -2.91179e-006 5.20174e-007 -1.63106e-006 -0.0123428 -0.00327188 0.000681885 -2.91178e-006 5.20382e-007 -1.63093e-006 -2.91179e-006 5.20174e-007 -1.63106e-006 2.98287e-006 -6.10426e-007 2.78585e-007 -2.91179e-006 5.20174e-007 -1.63106e-006 -17.3813 -36.1676 -54.843 87.2641 24.945 18.1362 53.8338 35.0631 96.7989 -17.0077 -32.6612 -28.9648 2.81176e-007 -2.73748e-008 5.15384e-007 4.08684e-007 7.55593e-008 9.48605e-008 2.81176e-007 -2.73747e-008 5.15384e-007 2.81176e-007 -2.73748e-008 5.15384e-007 0.0149735 -8.94303e-005 -2.69136e-006 1.55842e-007 2.68265e-007 1.30904e-006 2.81176e-007 -2.73748e-008 5.15384e-007 0.0190064 -0.00119043 -5.93371e-005 2.82379e-007 -2.73641e-008 5.15382e-007 2.81176e-007 -2.73748e-008 5.15384e-007 0.0122619 -0.00324464 -0.000679888 1.56041e-007 2.68427e-007 1.30908e-006 2.81176e-007 -2.73748e-008 5.15384e-007 4.08684e-007 7.55593e-008 9.48605e-008 2.81176e-007 -2.73747e-008 5.15384e-007 -0.38376 -54.3301 -6.70225 -172.747 28.0173 162.646 -1.50941 43.8529 -3.38898 -1.01337e-006 -1.24706e-006 4.71658e-007 1.37994 -53.752 1.17994 172.569 28.6794 -162.679 4.21659 43.6779 -4.3916 5.5342e-006 -1.71352e-006 -2.08272e-006 
-3.68953 10.7653 37.0665 -1.40334e-014 2.3078e-019 -90.0019 0.651106 12.0541 -0.655022 1.49851 24.099 -1.50575 1.49851 24.099 -1.50574 24.237 4.23926 -21.0092 -9.91548 -41.3137 -21.5345 20.6442 -8.99713 32.0909 -30.952 -2.06447 -41.1527 -22.7595 -3.45645 -125.091 46.1582 -73.0219 23.1755 -1.45589e-006 2.60409e-007 -8.15406e-007 1.45589e-006 -2.60409e-007 8.15406e-007 -1.90833e-014 1.27222e-014 -1.59028e-014 -1.45589e-006 2.60409e-007 -8.15406e-007 -0.0146535 -8.77731e-005 5.63553e-007 3.18055e-015 -6.36111e-015 -1.59028e-015 -1.45589e-006 2.60409e-007 -8.15406e-007 -0.0187687 -0.00117939 5.84428e-005 3.18055e-015 -3.18055e-015 -1.59028e-015 -1.45589e-006 2.60409e-007 -8.15406e-007 -0.0122847 -0.00325144 0.00067793 6.36111e-015 3.18055e-015 1.59028e-015 -1.45589e-006 2.60409e-007 -8.15406e-007 1.45589e-006 -2.60409e-007 8.15406e-007 -1.90833e-014 1.27222e-014 -1.59028e-014 -17.4676 -36.1401 -55.0315 87.2048 24.8394 18.1272 53.8704 34.8929 96.7179 -16.7863 -32.9221 -28.9795 2.11868e-030 -9.54166e-015 1.27222e-014 -0 -3.18055e-015 -0 -0 -6.36111e-015 -0 2.11868e-030 -9.54166e-015 1.27222e-014 0.0150219 -8.82345e-005 -7.3469e-007 -1.24322e-007 2.95377e-007 7.97008e-007 2.11868e-030 -9.54166e-015 1.27222e-014 0.0190189 -0.00119265 -5.90401e-005 -1.59028e-015 -3.18055e-015 3.18055e-015 2.11868e-030 -9.54166e-015 1.27222e-014 0.0122378 -0.00324008 -0.000674062 5.29669e-031 -3.18055e-015 9.54166e-015 2.11868e-030 -9.54166e-015 1.27222e-014 -0 -3.18055e-015 -0 -0 -6.36111e-015 -0 -0.38376 -54.3301 -6.70225 -172.747 28.0173 162.646 -1.50941 43.8529 -3.38898 -1.01337e-006 -1.24706e-006 4.71658e-007 1.37994 -53.752 1.17994 172.569 28.6794 -162.679 4.21659 43.6779 -4.3916 5.5342e-006 -1.71352e-006 -2.08272e-006 
-3.68953 10.7653 37.0665 -1.40334e-014 2.3078e-019 -90.0019 0.638093 12.0543 -0.646632 1.46963 24.0998 -1.48535 1.46964 24.0998 -1.48535 23.7754 4.39062 -20.3153 -9.71718 -41.2635 -21.1325 20.7698 -9.05238 31.8183 -30.9522 -2.06405 -41.1522 -22.7582 -3.45494 -125.094 46.4118 -72.7676 23.3471 1.45589e-006 -2.60731e-007 8.1528e-007 2.20719e-007 -2.57129e-006 -6.05209e-007 4.51386e-006 -9.59414e-007 -2.63045e-007 1.45589e-006 -2.60731e-007 8.1528e-007 -0.0146206 -8.78682e-005 1.05242e-006 3.72696e-006 -2.69604e-007 1.74633e-007 1.45589e-006 -2.60731e-007 8.1528e-007 -0.0187633 -0.00117941 5.64644e-005 3.72693e-006 -2.6962e-007 1.74589e-007 1.45589e-006 -2.60731e-007 8.1528e-007 -0.0122569 -0.00324506 0.000675505 3.72698e-006 -2.69643e-007 1.74541e-007 1.45589e-006 -2.60731e-007 8.1528e-007 2.20719e-007 -2.57129e-006 -6.05209e-007 4.51386e-006 -9.59414e-007 -2.63045e-007 -17.5539 -36.1124 -55.2199 87.1454 24.7338 18.1182 53.9066 34.7225 96.6374 -16.5643 -33.1833 -28.993 2.88089e-007 3.70803e-007 8.95161e-007 4.37731e-007 2.40402e-007 1.82441e-006 5.58298e-007 -5.46815e-008 1.02415e-006 2.88089e-007 3.70803e-007 8.95161e-007 0.0149618 -9.11032e-005 -2.24978e-006 4.08653e-007 7.57319e-008 9.48847e-008 2.88089e-007 3.70803e-007 8.95161e-007 0.0190121 -0.00119092 -5.82438e-005 4.08653e-007 7.57357e-008 9.48781e-008 2.88089e-007 3.70803e-007 8.95161e-007 0.012268 -0.00325093 -0.000674758 5.59873e-007 -5.49782e-008 1.02405e-006 2.88089e-007 3.70803e-007 8.95161e-007 4.37731e-007 2.40402e-007 1.82441e-006 5.58298e-007 -5.46815e-008 1.02415e-006 -0.38376 -54.3301 -6.70225 -172.747 28.0173 162.646 -1.50941 43.8529 -3.38898 -1.01337e-006 -1.24706e-006 4.71658e-007 1.37994 -53.752 1.17994 172.569 28.6794 -162.679 4.21659 43.6779 -4.3916 5.5342e-006 -1.71352e-006 -2.08272e-006 
-3.68953 10.7653 37.0665 -1.40334e-014 2.3078e-019 -90.0019 0.625071 12.0545 -0.638206 1.44075 24.1006 -1.46493 1.44074 24.1006 -1.46493 23.3105 4.53609 -19.6185 -9.51944 -41.2121 -20.7309 20.8951 -9.10822 31.5457 -30.9524 -2.06365 -41.1516 -22.7569 -3.45343 -125.097 46.6592 -72.5129 23.5125 1.45588e-006 -2.6105e-007 8.15154e-007 1.45588e-006 -2.6105e-007 8.15154e-007 1.45588e-006 -2.6105e-007 8.15154e-007 1.45588e-006 -2.6105e-007 8.15154e-007 -0.0146076 -8.98267e-005 1.59467e-006 1.45585e-006 -2.61155e-007 8.1512e-007 1.45588e-006 -2.6105e-007 8.15154e-007 -0.018725 -0.00117411 5.91965e-005 1.45585e-006 -2.61187e-007 8.15096e-007 1.45588e-006 -2.6105e-007 8.15154e-007 -0.0122719 -0.00324944 0.00067884 1.45588e-006 -2.61153e-007 8.15086e-007 1.45588e-006 -2.6105e-007 8.15154e-007 1.45588e-006 -2.6105e-007 8.15154e-007 1.45588e-006 -2.6105e-007 8.15154e-007 -17.64 -36.0845 -55.4082 87.0861 24.6282 18.109 53.9424 34.5521 96.557 -16.3415 -33.4445 -29.0053 -4.08642e-007 -7.57948e-008 -9.49102e-008 -1.76737e-007 -3.39789e-008 -2.65559e-006 -2.60906e-007 -2.06273e-007 8.31205e-007 -4.08642e-007 -7.57948e-008 -9.49102e-008 0.0150125 -9.09574e-005 2.75029e-006 -4.08639e-007 -7.58073e-008 -9.49e-008 -4.08642e-007 -7.57948e-008 -9.49102e-008 0.0189726 -0.00119298 -5.5995e-005 -4.08639e-007 -7.5811e-008 -9.48934e-008 -4.08642e-007 -7.57948e-008 -9.49102e-008 0.0122965 -0.00325569 -0.000677226 -4.08642e-007 -7.58081e-008 -9.48906e-008 -4.08642e-007 -7.57948e-008 -9.49102e-008 -1.76737e-007 -3.39789e-008 -2.65559e-006 -2.60906e-007 -2.06273e-007 8.31205e-007 -0.38376 -54.3301 -6.70225 -172.747 28.0173 162.646 -1.50941 43.8529 -3.38898 -1.01337e-006 -1.24706e-006 4.71658e-007 1.37994 -53.752 1.17994 172.569 28.6794 -162.679 4.21659 43.6779 -4.3916 5.5342e-006 -1.71352e-006 -2.08272e-006 
